<?xml version="1.0" encoding="UTF-8"?><svg xmlns="http://www.w3.org/2000/svg" viewBox="0 0 556.84 501.43"><defs><style>.e{fill:#c678dd;}.f{fill:#619aef;}.g{fill:#fff;opacity:.96;}</style></defs><g id="a"/><g id="b"><g id="c"><g id="d"><path d="M280.86,202.7c26.22-16.73,55.8-24.08,87.81-9.08,13.61,6.38,24.09,16.79,30.29,30.53,15.33,34,41.94,49.68,78.49,51.54,39.96,2.03,73.08,35.48,78.4,75.61,8.95,67.53-43.54,136.71-111.31,148.53-50.61,8.83-93.79-19.64-104.81-69.35-7.11-32.08-26.23-53.44-57.74-63.07-31.13-9.52-48.57-30.44-52.28-62.92-2.18-19.09,1.36-36.91,8.56-51.56,17.58,13.9,35.25,27.69,52.6,41.87,1.77,1.44,1.93,5.19,2.3,7.95,3.28,24,22.5,42.77,45.13,43.93,24.62,1.27,44.48-13.16,50.69-36.82,8.14-31.02-16.85-61.57-48.98-60.49-4.63,.16-10.44-1.65-13.86-4.65-15.36-13.49-30.05-27.75-45.3-42.02Zm137.03,224.4c19.82-23.01,39.16-45.46,58.27-67.64-5.2-4.72-10.79-9.81-15.42-14.01-19.81,23.1-39.23,45.74-58.46,68.17,5.34,4.61,11.02,9.53,15.61,13.49Zm81.12-62.66c-1.31,.03-2.62,.07-3.93,.1-2.05,3.21-5.86,6.57-5.6,9.58,.22,2.65,4.92,6.68,7.79,6.81,2.41,.11,6.9-4.38,7.09-7.06,.21-3.01-3.4-6.27-5.35-9.43Zm-5.11-32.01c-3.39,5.31-7.44,8.95-6.8,11.34,.85,3.16,5.36,5.33,8.3,7.93,2.32-3.05,6.21-5.98,6.47-9.2,.2-2.53-4.08-5.42-7.97-10.07Zm25.09-1.86c-3.36,5.09-7.43,8.64-6.83,11,.81,3.19,5.21,5.47,8.06,8.14,2.5-3.01,6.58-5.83,6.98-9.1,.3-2.41-4.21-5.41-8.21-10.04Zm1.84,29.68c-3.27,5.75-7.08,9.56-6.33,11.85,1.01,3.06,5.46,6.56,8.65,6.79,2.13,.15,6.63-5.23,6.44-7.87-.22-3.04-4.44-5.78-8.76-10.77Z"/><path d="M64.61,82.5c6.97-8.26,13.67-16.2,20.82-24.67,78.66,65.1,157.13,130.05,234.37,193.98-9.08,10.52-17.8,20.63-27.27,31.61C217.68,217.44,141.15,149.98,64.61,82.5Z"/><path d="M33.71,0c1.81,1.08,3.88,1.98,5.54,3.37,12.93,10.92,25.69,22.05,38.7,32.89,5.47,4.55,5.69,8.81,1.06,14.06-7.72,8.75-15.33,17.62-22.73,26.65-4.79,5.85-9.51,5.69-14.9,1.06-12.39-10.67-24.74-21.39-37.31-31.83C.08,42.89-.96,39.47,.87,34.74c1.14-2.97,1.7-6.16,2.73-9.17,1.58-4.59,2.04-10.99,5.32-13.28C16.17,7.2,24.88,4.19,33.71,0ZM14.42,32.48c-1.51,1.32-3.78,2.4-3.81,3.54-.05,2.01,.69,4.7,2.11,5.96,10.03,8.89,20.19,17.66,30.66,26.04,1.89,1.51,5.39,1,8.15,1.42-.85-2.89-.8-6.76-2.69-8.51-9.41-8.71-19.31-16.89-29.11-25.17-1.5-1.26-3.36-2.09-5.31-3.27Zm58.65,14.04c-1.73-3.25-2.03-4.53-2.83-5.22-11.27-9.74-22.54-19.51-34.07-28.93-1.15-.94-5.03-.45-5.91,.7-.94,1.24-.65,4.96,.52,6.01,10.88,9.75,21.93,19.32,33.33,28.45,1.46,1.17,5.2-.5,8.96-1Z"/><path d="M338.77,258.18c22.2-1.84,41.56,14.29,43.43,36.16,1.96,23-14.68,42.82-37.3,44.42-21.9,1.55-41.2-15.05-43.05-37.02-1.92-22.74,14.13-41.67,36.92-43.56Zm1.14,12.39c-15.25,1.2-26.8,14.52-25.71,29.64,1.1,15.11,14.6,26.91,29.61,25.88,15.36-1.06,27.43-15.01,26.18-30.26-1.21-14.79-15.08-26.43-30.09-25.25Z"/><path class="e" d="M417.89,427.09c-4.58-3.96-10.27-8.88-15.61-13.49,19.24-22.43,38.65-45.07,58.46-68.17,4.63,4.2,10.22,9.29,15.42,14.01-19.11,22.18-38.45,44.63-58.27,67.64Zm-3.63-15.89c.44,.92,.88,1.85,1.33,2.77,1.91-.67,4.48-.77,5.63-2.1,13.57-15.61,26.99-31.37,40.25-47.25,1.05-1.25,.61-3.75,.86-5.68-1.61,.64-3.75,.82-4.76,1.98-14.53,16.68-28.9,33.49-43.31,50.28Z"/><path class="e" d="M499.01,364.44c1.95,3.15,5.56,6.42,5.35,9.43-.18,2.69-4.68,7.18-7.09,7.06-2.87-.14-7.57-4.16-7.79-6.81-.26-3.01,3.56-6.37,5.6-9.58,1.31-.03,2.62-.07,3.93-.1Z"/><path class="e" d="M493.9,332.42c3.89,4.65,8.17,7.54,7.97,10.07-.26,3.22-4.15,6.15-6.47,9.2-2.94-2.6-7.46-4.77-8.3-7.93-.64-2.38,3.42-6.03,6.8-11.34Z"/><path class="e" d="M518.99,330.57c4,4.63,8.51,7.63,8.21,10.04-.4,3.27-4.48,6.09-6.98,9.1-2.86-2.67-7.26-4.95-8.06-8.14-.6-2.36,3.47-5.91,6.83-11Z"/><path class="e" d="M520.84,360.25c4.32,4.99,8.54,7.74,8.76,10.77,.19,2.64-4.31,8.02-6.44,7.87-3.19-.23-7.64-3.72-8.65-6.79-.76-2.3,3.06-6.1,6.33-11.85Z"/><path class="e" d="M14.42,32.48c1.95,1.18,3.82,2.01,5.31,3.27,9.8,8.28,19.7,16.46,29.11,25.17,1.9,1.75,1.85,5.62,2.69,8.51-2.76-.42-6.26,.09-8.15-1.42-10.47-8.37-20.63-17.14-30.66-26.04-1.42-1.26-2.16-3.96-2.11-5.96,.03-1.13,2.3-2.21,3.81-3.54Z"/><path class="e" d="M73.15,46.41c-3.76,.52-7.48,2.21-8.95,1.04-11.45-9.07-22.55-18.59-33.48-28.28-1.18-1.04-1.48-4.77-.55-6.01,.87-1.15,4.74-1.66,5.9-.72,11.58,9.37,22.89,19.08,34.21,28.76,.81,.69,1.12,1.97,2.86,5.21Z"/><path class="e" d="M339.92,270.57c15.01-1.18,28.88,10.46,30.09,25.25,1.25,15.25-10.82,29.2-26.18,30.26-15.01,1.04-28.52-10.76-29.61-25.88-1.1-15.12,10.45-28.44,25.71-29.64Z"/><path d="M414.26,411.2c14.41-16.78,28.78-33.59,43.31-50.28,1.01-1.16,3.15-1.34,4.76-1.98-.25,1.92,.19,4.42-.86,5.68-13.26,15.88-26.68,31.63-40.25,47.25-1.16,1.33-3.72,1.43-5.63,2.1-.44-.92-.88-1.85-1.33-2.77Z"/></g><g><path class="f" d="M310.84,479.82c-17.13,0-34.25-.03-51.38,.04-2.31,0-4.17-.63-5.97-2.19-32.04-27.94-64.12-55.85-96.22-83.72-1.75-1.52-2.64-3.18-2.79-5.59-1.41-22.98-2.92-45.96-4.38-68.94-1.42-22.27-2.82-44.55-4.24-66.82-.41-6.43-.91-12.85-1.2-19.28-.09-2.12-.56-3.75-2.41-4.8-5.18-2.93-7.29-7.57-8.45-13.66-7.1-37.45-14.6-74.81-21.98-112.2-.75-3.8-1.51-7.6-2.26-11.4-.76-3.84,1.27-6.13,5.02-5.71,23.86,2.68,47.72,5.36,71.59,7.97,1.1,.12,2.37-.11,3.36-.61,21.63-10.84,44.46-17.29,68.1-20.91,16.87-2.58,33.79-4.83,50.84-5.12,17.33-.3,34.49,2.08,51.63,4.53,17.59,2.51,34.89,6.33,51.59,12.72,6.77,2.59,13.34,5.77,20.03,8.57,1.27,.53,2.75,.94,4.07,.8,23.79-2.59,47.56-5.28,71.34-7.95,3.76-.42,5.73,1.82,4.95,5.76-8.03,40.94-16.2,81.85-23.99,122.84-1.24,6.5-3.45,11.52-9.01,14.83-.98,.59-1.78,2.35-1.87,3.63-1.81,27.2-3.49,54.41-5.24,81.61-1.59,24.83-3.19,49.65-4.94,74.46-.12,1.7-1.11,3.8-2.35,4.88-32.05,28.06-64.2,56.01-96.3,84.02-1.79,1.56-3.63,2.26-5.96,2.25-17.21-.07-34.42-.04-51.63-.04v.02Zm-2.02-404.67c-22.2,1.01-43.2,3.51-64,7.64-17.12,3.4-33.66,8.88-49.51,16.57-1.47,.71-1.99,1.43-1.64,3.18,2.11,10.52,4.07,21.08,6.25,31.59,.26,1.27,1.25,2.7,2.3,3.42,35.55,24.25,71.15,48.41,106.71,72.62,1.37,.94,2.34,1.09,3.79,.1,35.7-24.33,71.43-48.59,107.12-72.93,.91-.62,1.71-1.94,1.94-3.07,2.08-10.17,3.91-20.4,6.06-30.56,.57-2.69,.14-4.19-2.44-4.84-.48-.12-.93-.41-1.39-.63-20.25-9.42-41.45-15.14-63.35-18.3-17.55-2.53-35.12-4.73-51.83-4.8Zm57.31,393.22c.51-.31,.82-.43,1.06-.64,7.32-6.35,14.65-12.67,21.9-19.1,.7-.62,1.15-1.94,1.16-2.94,.1-6,.03-12,.03-18,0-38.66,0-77.32,.05-115.98,0-1.74-.29-2.86-2.03-3.68-13.4-6.31-26.75-12.75-40.11-19.13-.72-.34-1.48-.58-2.53-.98,0,1.58,0,2.72,0,3.86,0,28.24,0,56.49,0,84.73,0,5.41-1.01,6.48-6.2,6.48-19.14,0-38.28-.01-57.42-.02-4.87,0-5.97-1.12-5.97-6.17,0-28.51,0-57.02,0-85.53,0-1.01,0-2.02,0-3.33-.85,.3-1.32,.42-1.76,.63-13.75,6.57-27.51,13.11-41.21,19.79-.77,.38-1.51,1.82-1.52,2.78-.11,10.33-.08,20.65-.08,30.98,0,34.51,0,69.02,.08,103.53,0,1.12,.68,2.57,1.5,3.31,5.48,4.93,11.09,9.72,16.66,14.55,1.85,1.61,3.71,3.21,5.82,5.04,.55-1.46,.99-2.58,1.4-3.71,5.85-16.25,11.7-32.5,17.56-48.75,1.3-3.61,2-4.1,5.54-4.11,20.57,0,41.14,0,61.71,0,3.5,0,4.26,.57,5.54,4.12,5.01,13.94,10.02,27.89,15.03,41.83,1.24,3.44,2.5,6.86,3.81,10.44Zm-90.96-191.57c-.07-1.3-.06-2.18-.17-3.04-3.45-27.01-6.93-54.02-10.31-81.05-.27-2.14-1.03-3.42-2.75-4.59-22.03-14.87-44-29.85-66.03-44.73-2.01-1.36-3.03-3.02-3.48-5.45-2.09-11.25-4.32-22.47-6.48-33.71-.26-1.35-.44-2.38-2.19-2.57-18.87-2.03-37.72-4.18-56.58-6.28-2.86-.32-5.73-.6-8.62-.91,0,.62-.04,.89,0,1.14,7.91,40.25,15.81,80.5,23.78,120.73,.23,1.16,.99,2.49,1.89,3.17,17.7,13.26,35.45,26.45,53.22,39.61,.78,.58,1.83,.85,2.79,1.06,16.24,3.64,32.49,7.25,48.74,10.86,8.61,1.91,17.23,3.78,26.19,5.75Zm71.26-.08c.94-.12,1.45-.15,1.93-.26,24.62-5.46,49.25-10.91,73.86-16.4,.79-.18,1.6-.56,2.27-1.05,17.63-13.06,35.25-26.13,52.81-39.3,1.02-.77,1.88-2.28,2.14-3.59,6.94-34.96,13.8-69.94,20.67-104.92,1.08-5.48,2.13-10.98,3.23-16.7-2,.19-3.65,.32-5.3,.5-19.86,2.23-39.71,4.51-59.58,6.65-1.82,.2-2.36,.9-2.69,2.62-2.05,10.9-4.31,21.76-6.23,32.68-.59,3.36-2.12,5.41-4.79,7.21-21.83,14.71-43.58,29.56-65.39,44.31-1.41,.95-2.02,2.02-2.24,3.77-2.74,21.86-5.57,43.71-8.37,65.57-.79,6.19-1.53,12.38-2.33,18.91Zm-73.12-80.79c-.08,.58-.14,.75-.12,.92,2.75,21.59,5.57,43.16,8.24,64.76,1.06,8.56,2.46,17.15,2.56,25.74,.33,27.96,.12,55.94,.12,83.91v3.19h53.53c0-1.21,0-2.25,0-3.28,0-26.56-.02-53.11-.01-79.67,0-3.35-.24-6.74,.17-10.05,2.66-21.6,5.47-43.18,8.23-64.77,.87-6.78,1.72-13.56,2.62-20.72-.98,.6-1.64,.96-2.26,1.38-10.72,7.27-21.45,14.51-32.12,21.84-2.34,1.61-4.35,1.7-6.7,0-4.15-2.99-8.44-5.77-12.67-8.64-7.11-4.82-14.22-9.63-21.59-14.62Zm124.87,244.39c.74-.37,1-.43,1.18-.59,19.65-17.1,39.29-34.2,58.9-51.35,.61-.53,1.07-1.59,1.13-2.44,.73-10.47,1.37-20.94,2.03-31.41,1.11-17.69,2.21-35.38,3.33-53.07,1.32-20.95,2.67-41.89,3.99-62.84,.03-.47-.1-.96-.18-1.64-.5,.29-.79,.42-1.05,.61-12.37,9.1-24.76,18.18-37.08,27.36-.78,.58-1.4,1.97-1.43,3-.15,5.02-.16,10.06-.03,15.08,.07,2.69-.92,4.42-3.03,5.89-8.66,6.05-17.22,12.27-25.88,18.33-1.43,1-1.93,2.09-1.92,3.88,.05,41.99,.03,83.99,.03,125.98,0,.94,0,1.88,0,3.22Zm-174.76,.26c.07-1.27,.13-1.86,.13-2.45,0-42.44,0-84.88,.04-127.32,0-1.61-.51-2.56-1.76-3.44-8.65-6.08-17.2-12.31-25.89-18.32-2.4-1.66-3.33-3.64-3.24-6.58,.15-4.85,.12-9.71-.03-14.56-.03-1.04-.64-2.43-1.42-3.01-12.25-9.13-24.58-18.15-36.89-27.19-.36-.27-.82-.4-1.33-.64,0,1.1-.05,1.98,0,2.84,1.2,18.75,2.43,37.49,3.62,56.24,1.89,29.66,3.77,59.32,5.59,88.99,.11,1.77,.73,2.88,1.98,3.97,15.86,13.75,31.68,27.55,47.51,41.34,3.74,3.25,7.48,6.49,11.69,10.14Zm134.93,30.72c-.13-.66-.17-1.18-.34-1.66-5.67-15.84-11.39-31.67-17.01-47.53-.57-1.6-1.47-1.83-2.85-1.83-18.21,.03-36.42,.04-54.64-.02-1.62,0-2.33,.6-2.89,2.17-5.46,15.36-10.99,30.7-16.49,46.04-.31,.86-.53,1.76-.85,2.82h95.06Zm-93.28-187.51l-.08-.65c-21.36-4.73-42.73-9.47-64.34-14.25,0,4.11-.11,7.81,.07,11.5,.05,1.01,.74,2.33,1.53,2.9,7.94,5.77,15.98,11.39,23.93,17.13,1.29,.93,2.31,.97,3.67,.28,3.55-1.8,7.17-3.45,10.76-5.17,8.15-3.91,16.31-7.82,24.46-11.73Zm91.65-.67v.66c12.06,5.77,24.11,11.55,36.19,17.24,.58,.27,1.65,0,2.24-.42,8.23-5.78,16.43-11.61,24.6-17.49,.6-.43,1.26-1.31,1.28-2,.12-3.95,.06-7.91,.06-12.25-21.65,4.8-43.01,9.53-64.36,14.26Z"/><path class="g" d="M308.82,75.14c16.71,.07,34.28,2.26,51.83,4.8,21.9,3.16,43.1,8.88,63.35,18.3,.46,.21,.9,.5,1.39,.63,2.58,.65,3.01,2.16,2.44,4.84-2.14,10.16-3.98,20.38-6.06,30.56-.23,1.13-1.03,2.45-1.94,3.07-35.69,24.34-71.42,48.6-107.12,72.93-1.46,.99-2.42,.84-3.79-.1-35.56-24.22-71.16-48.38-106.71-72.62-1.05-.71-2.03-2.15-2.3-3.42-2.17-10.51-4.13-21.07-6.25-31.59-.35-1.74,.17-2.46,1.64-3.18,15.85-7.69,32.39-13.17,49.51-16.57,20.8-4.13,41.8-6.63,64-7.64Zm2.24,46.85v.03c-14.1,0-28.19,.02-42.29-.02-2.27,0-4.26,.44-5.06,2.96-.82,2.57,.64,4.1,2.49,5.46,13.72,10,27.41,20.04,41.12,30.05,3.08,2.25,3.93,2.26,7,.03,13.78-10.05,27.55-20.13,41.34-30.17,1.81-1.32,3.1-2.84,2.41-5.26-.72-2.54-2.69-3.1-4.97-3.09-14.01,.03-28.02,.01-42.03,.01Z"/><path class="g" d="M366.13,468.36c-1.31-3.58-2.57-7.01-3.81-10.44-5.01-13.94-10.02-27.89-15.03-41.83-1.27-3.55-2.03-4.12-5.54-4.12-20.57,0-41.14,0-61.71,0-3.54,0-4.24,.5-5.54,4.11-5.86,16.24-11.71,32.5-17.56,48.75-.41,1.13-.85,2.25-1.4,3.71-2.11-1.83-3.97-3.43-5.82-5.04-5.57-4.83-11.17-9.61-16.66-14.55-.82-.74-1.5-2.18-1.5-3.31-.08-34.51-.08-69.02-.08-103.53,0-10.33-.03-20.65,.08-30.98,.01-.96,.75-2.4,1.52-2.78,13.7-6.68,27.46-13.22,41.21-19.79,.43-.21,.91-.33,1.76-.63,0,1.31,0,2.32,0,3.33,0,28.51,0,57.02,0,85.53,0,5.05,1.1,6.17,5.97,6.17,19.14,0,38.28,.02,57.42,.02,5.19,0,6.2-1.06,6.2-6.48,0-28.24,0-56.49,0-84.73,0-1.14,0-2.28,0-3.86,1.04,.4,1.81,.63,2.53,.98,13.37,6.39,26.71,12.83,40.11,19.13,1.74,.82,2.03,1.94,2.03,3.68-.04,38.66-.04,77.32-.05,115.98,0,6,.07,12-.03,18-.02,1-.47,2.32-1.16,2.94-7.25,6.43-14.58,12.76-21.9,19.1-.24,.21-.54,.33-1.06,.64Z"/><path class="g" d="M275.17,276.79c-8.96-1.96-17.58-3.84-26.19-5.75-16.25-3.6-32.5-7.22-48.74-10.86-.96-.22-2.01-.48-2.79-1.06-17.77-13.16-35.52-26.35-53.22-39.61-.9-.68-1.67-2.01-1.89-3.17-7.97-40.23-15.88-80.48-23.78-120.73-.05-.25,0-.52,0-1.14,2.89,.3,5.76,.59,8.62,.91,18.86,2.1,37.71,4.25,56.58,6.28,1.75,.19,1.93,1.22,2.19,2.57,2.16,11.24,4.39,22.46,6.48,33.71,.45,2.43,1.47,4.1,3.48,5.45,22.03,14.88,44,29.85,66.03,44.73,1.72,1.16,2.48,2.45,2.75,4.59,3.38,27.02,6.87,54.03,10.31,81.05,.11,.86,.1,1.73,.17,3.04Zm-27.7-37.47c-1.39-1.57-2.34-3.14-3.69-4.07-22.72-15.81-45.5-31.55-68.26-47.3-2.1-1.45-4.16-2.99-6.35-4.28-1.93-1.14-3.77-.69-5.12,1.2-1.3,1.82-.95,4.08,.8,5.65,.51,.45,1.09,.82,1.65,1.21,18.91,13.09,37.82,26.17,56.74,39.25,5.6,3.88,11.15,7.86,16.86,11.55,1.16,.75,3.09,.91,4.39,.46,1.08-.38,1.75-2.06,2.99-3.67Zm-7.33-36.66c-1.6-1.63-2.74-3.21-4.23-4.25-22.12-15.38-44.28-30.69-66.44-46.01-2.52-1.74-5.01-3.55-7.62-5.15-1.99-1.22-4.19-.56-5.25,1.42-1.1,2.03-.77,3.91,.94,5.44,.57,.51,1.23,.92,1.86,1.36,21.52,14.89,43.05,29.77,64.57,44.66,3.01,2.08,5.94,4.36,9.1,6.14,1.18,.67,3.1,.6,4.4,.08,.99-.39,1.53-2.03,2.66-3.68Z"/><path class="g" d="M346.43,276.71c.8-6.53,1.54-12.72,2.33-18.91,2.79-21.86,5.63-43.71,8.37-65.57,.22-1.75,.83-2.82,2.24-3.77,21.81-14.75,43.56-29.6,65.39-44.31,2.67-1.8,4.2-3.85,4.79-7.21,1.93-10.92,4.19-21.78,6.23-32.68,.32-1.72,.86-2.43,2.69-2.62,19.87-2.14,39.72-4.42,59.58-6.65,1.65-.19,3.31-.31,5.3-.5-1.11,5.73-2.16,11.22-3.23,16.7-6.87,34.98-13.72,69.96-20.67,104.92-.26,1.31-1.12,2.82-2.14,3.59-17.56,13.17-35.19,26.24-52.81,39.3-.66,.49-1.47,.87-2.27,1.05-24.62,5.49-49.24,10.95-73.86,16.4-.49,.11-.99,.14-1.93,.26Zm119.31-124.88c-.06-3.86-2.57-5.84-5.09-5-.86,.29-1.64,.88-2.4,1.41-19.36,13.38-38.71,26.76-58.06,40.15-5.26,3.64-10.54,7.24-15.76,10.94-2.2,1.56-2.66,3.93-1.38,5.94,1.28,2,3.52,2.39,5.78,.98,.36-.22,.7-.49,1.05-.73,10.8-7.46,21.6-14.92,32.41-22.39,13.47-9.31,26.95-18.59,40.36-27.97,1.4-.98,2.41-2.59,3.09-3.34Zm-6.51,35.57c-1.24-1.63-1.9-3.33-2.97-3.7-1.3-.45-3.25-.26-4.41,.5-6.48,4.24-12.8,8.73-19.18,13.14-18.35,12.7-36.7,25.39-55.05,38.09-2.58,1.79-3.24,3.98-1.94,6.2,1.33,2.28,3.64,2.56,6.35,.76,.43-.28,.84-.59,1.26-.88,12.05-8.33,24.1-16.67,36.14-25,12.05-8.33,24.12-16.63,36.11-25.04,1.34-.94,2.29-2.51,3.68-4.08Z"/><path class="g" d="M273.31,195.92c7.37,4.99,14.48,9.8,21.59,14.62,4.23,2.87,8.52,5.65,12.67,8.64,2.34,1.69,4.36,1.6,6.7,0,10.67-7.34,21.41-14.58,32.12-21.84,.62-.42,1.27-.78,2.26-1.38-.91,7.16-1.76,13.94-2.62,20.72-2.76,21.59-5.57,43.17-8.23,64.77-.41,3.3-.17,6.69-.17,10.05,0,26.56,0,53.11,.01,79.67,0,1.04,0,2.07,0,3.28h-53.53v-3.19c0-27.97,.2-55.94-.12-83.91-.1-8.59-1.51-17.18-2.56-25.74-2.67-21.6-5.49-43.18-8.24-64.76-.02-.17,.04-.35,.12-.92Z"/><path class="g" d="M398.18,440.31c0-1.34,0-2.28,0-3.22,0-41.99,.01-83.99-.03-125.98,0-1.79,.49-2.87,1.92-3.88,8.66-6.06,17.22-12.28,25.88-18.33,2.1-1.47,3.1-3.19,3.03-5.89-.14-5.02-.12-10.06,.03-15.08,.03-1.03,.65-2.42,1.43-3,12.32-9.18,24.7-18.26,37.08-27.36,.26-.19,.55-.32,1.05-.61,.08,.68,.21,1.17,.18,1.64-1.32,20.95-2.66,41.89-3.99,62.84-1.12,17.69-2.22,35.38-3.33,53.07-.66,10.47-1.3,20.95-2.03,31.41-.06,.85-.52,1.91-1.13,2.44-19.61,17.15-39.25,34.25-58.9,51.35-.18,.16-.44,.23-1.18,.59Z"/><path class="g" d="M223.41,440.57c-4.21-3.65-7.95-6.89-11.69-10.14-15.83-13.78-31.65-27.58-47.51-41.34-1.25-1.09-1.88-2.2-1.98-3.97-1.82-29.67-3.7-59.33-5.59-88.99-1.19-18.75-2.42-37.49-3.62-56.24-.06-.87,0-1.74,0-2.84,.51,.24,.97,.38,1.33,.64,12.32,9.04,24.64,18.06,36.89,27.19,.78,.58,1.39,1.98,1.42,3.01,.15,4.85,.17,9.71,.03,14.56-.09,2.94,.85,4.92,3.24,6.58,8.69,6.01,17.25,12.24,25.89,18.32,1.25,.88,1.76,1.83,1.76,3.44-.04,42.44-.03,84.88-.04,127.32,0,.59-.06,1.18-.13,2.45Z"/><path class="g" d="M358.34,471.3h-95.06c.32-1.07,.54-1.96,.85-2.82,5.5-15.35,11.04-30.68,16.49-46.04,.56-1.56,1.27-2.17,2.89-2.17,18.21,.06,36.42,.05,54.64,.02,1.38,0,2.29,.23,2.85,1.83,5.63,15.86,11.34,31.69,17.01,47.53,.17,.47,.21,1,.34,1.66Z"/><path class="f" d="M265.07,283.79c-8.15,3.91-16.31,7.82-24.46,11.73-3.59,1.72-7.21,3.37-10.76,5.17-1.36,.69-2.38,.66-3.67-.28-7.95-5.75-15.99-11.36-23.93-17.13-.79-.58-1.48-1.89-1.53-2.9-.18-3.69-.07-7.39-.07-11.5,21.61,4.79,42.98,9.52,64.34,14.25l.08,.65Z"/><path class="f" d="M356.72,283.12c21.35-4.73,42.71-9.46,64.36-14.26,0,4.34,.06,8.3-.06,12.25-.02,.69-.68,1.57-1.28,2-8.17,5.88-16.36,11.71-24.6,17.49-.59,.41-1.66,.69-2.24,.42-12.08-5.69-24.13-11.48-36.18-17.24v-.66Z"/><path class="f" d="M311.06,121.99c14.01,0,28.02,.01,42.03-.01,2.29,0,4.25,.55,4.97,3.09,.69,2.42-.6,3.95-2.41,5.26-13.79,10.04-27.56,20.12-41.34,30.17-3.06,2.23-3.92,2.22-7-.03-13.71-10.01-27.4-20.05-41.12-30.05-1.85-1.35-3.31-2.88-2.49-5.46,.8-2.52,2.79-2.97,5.06-2.96,14.09,.03,28.19,.02,42.29,.02v-.03Zm30.27,8.6h-60.43c.36,.44,.49,.69,.68,.83,9.36,6.85,18.7,13.73,28.13,20.47,.61,.43,2.08,.19,2.79-.3,4.75-3.32,9.4-6.78,14.08-10.21,4.73-3.46,9.46-6.92,14.75-10.79Z"/><path class="f" d="M247.47,239.32c-1.24,1.61-1.9,3.29-2.99,3.67-1.29,.46-3.23,.29-4.39-.46-5.71-3.7-11.25-7.67-16.86-11.55-18.91-13.08-37.82-26.17-56.74-39.25-.56-.39-1.14-.75-1.65-1.21-1.76-1.57-2.1-3.83-.8-5.65,1.35-1.89,3.19-2.34,5.12-1.2,2.19,1.29,4.25,2.83,6.35,4.28,22.76,15.75,45.54,31.48,68.26,47.3,1.35,.94,2.29,2.5,3.69,4.07Z"/><path class="f" d="M240.14,202.65c-1.13,1.66-1.67,3.29-2.66,3.68-1.3,.52-3.22,.58-4.4-.08-3.17-1.78-6.09-4.05-9.1-6.14-21.52-14.88-43.05-29.77-64.57-44.66-.63-.44-1.29-.84-1.86-1.36-1.71-1.53-2.04-3.41-.94-5.44,1.06-1.97,3.26-2.63,5.25-1.42,2.61,1.59,5.1,3.4,7.62,5.15,22.16,15.32,44.32,30.63,66.44,46.01,1.49,1.04,2.64,2.62,4.23,4.25Z"/><path class="f" d="M465.73,151.83c-.68,.75-1.69,2.36-3.09,3.34-13.42,9.38-26.9,18.66-40.36,27.97-10.8,7.46-21.6,14.92-32.41,22.39-.35,.24-.69,.51-1.05,.73-2.26,1.4-4.5,1.02-5.78-.98-1.29-2.01-.83-4.38,1.38-5.94,5.22-3.7,10.5-7.3,15.76-10.94,19.35-13.38,38.7-26.77,58.06-40.15,.77-.53,1.55-1.13,2.4-1.41,2.52-.85,5.03,1.13,5.09,5Z"/><path class="f" d="M459.22,187.4c-1.39,1.57-2.34,3.14-3.68,4.08-12,8.41-24.07,16.71-36.11,25.04-12.05,8.33-24.1,16.66-36.14,25-.42,.29-.83,.6-1.26,.88-2.72,1.8-5.03,1.52-6.35-.76-1.29-2.22-.64-4.41,1.94-6.2,18.34-12.71,36.7-25.4,55.05-38.09,6.37-4.41,12.7-8.9,19.18-13.14,1.16-.76,3.11-.95,4.41-.5,1.08,.37,1.74,2.07,2.97,3.7Z"/><path class="f" d="M341.33,130.59c-5.3,3.87-10.02,7.33-14.75,10.79-4.68,3.42-9.33,6.89-14.08,10.21-.71,.5-2.18,.74-2.79,.3-9.43-6.74-18.77-13.62-28.13-20.47-.19-.14-.32-.38-.68-.83h60.43Z"/></g></g></g></svg>